<?xml version="1.0" encoding="utf-8"?>
<!-- Generator: Adobe Illustrator 24.3.0, SVG Export Plug-In . SVG Version: 6.00 Build 0)  -->
<svg version="1.1" id="Layer_1" xmlns="http://www.w3.org/2000/svg" xmlns:xlink="http://www.w3.org/1999/xlink" x="0px" y="0px"
	 viewBox="0 0 512 512" style="enable-background:new 0 0 512 512;" xml:space="preserve">
<style type="text/css">
	.st0{fill:#464646;}
	.st1{fill:#F5919D;}
</style>
<g>
	<path class="st0" d="M365.7,34.3c-53.3,0-88.1,28.6-109.7,57.6c-21.6-29.1-56.4-57.6-109.7-57.6C67.1,34.2,5,100.4,5,185
		c0,90.3,72.9,151.7,173.7,236.8c18.1,15.2,36.7,31,56.6,48.2c6,5.2,13.3,7.7,20.7,7.7s14.8-2.6,20.8-7.7
		c19.8-17.2,38.5-32.9,56.6-48.2C434.1,336.7,507,275.3,507,185C507,100.5,444.9,34.3,365.7,34.3z M255.2,453.8
		C119.8,336.5,26.9,275,26.9,182.1c0-67.2,46.6-123.9,114.1-123.9c86.8,0,114.2,98.9,114.2,98.9s27.4-99,114.1-99
		c67.6,0,114.2,56.7,114.2,123.9C483.5,274.9,390.6,336.5,255.2,453.8z"/>
	<path class="st1" d="M344.1,101.7c67.7-19.2,105.7,34.4,98.8,96.6c-8.1,72-82.2,120.4-187.7,211.8
		C149.7,318.7,79.9,269.7,67.5,198.3C57.2,139,100.1,92.3,157,101.7c66.7,11.1,98.2,95.9,98.2,95.9S289.3,117.3,344.1,101.7z"/>
</g>
</svg>
