<?xml version="1.0" encoding="utf-8"?>
<!-- Generator: Adobe Illustrator 23.1.0, SVG Export Plug-In . SVG Version: 6.00 Build 0)  -->
<svg version="1.1" id="Capa_1" xmlns="http://www.w3.org/2000/svg" xmlns:xlink="http://www.w3.org/1999/xlink" x="0px" y="0px"
	 viewBox="0 0 512 512" style="enable-background:new 0 0 512 512;" xml:space="preserve">
<style type="text/css">
	.st0{fill:#F5919D;}
	.st1{fill:#464646;}
</style>
<g>
	<path class="st0" d="M337,420.8c0.8,0.1,1.7,0.2,2.5,0.2c7.2,0,13.6-5.2,14.8-12.5l15-90c1.4-8.2-4.2-15.9-12.3-17.3
		c-8.2-1.4-15.9,4.2-17.3,12.3l-15,90C323.3,411.7,328.9,419.4,337,420.8L337,420.8z"/>
	<path class="st0" d="M158.7,408.5c1.2,7.3,7.6,12.5,14.8,12.5c0.8,0,1.6-0.1,2.5-0.2c8.2-1.4,13.7-9.1,12.3-17.3l-15-90
		c-1.4-8.2-9.1-13.7-17.3-12.3c-8.2,1.4-13.7,9.1-12.3,17.3L158.7,408.5z"/>
	<path class="st1" d="M497,181h-52.8L328.7,36.6c-5.2-6.5-14.6-7.5-21.1-2.3c-6.5,5.2-7.5,14.6-2.3,21.1L405.8,181H106.2L206.7,55.4
		c5.2-6.5,4.1-15.9-2.3-21.1c-6.5-5.2-15.9-4.1-21.1,2.3L67.8,181H15c-8.3,0-15,6.7-15,15v60c0,8.3,6.7,15,15,15h18.7l56.9,199.1
		c1.8,6.4,7.7,10.9,14.4,10.9h302c6.7,0,12.6-4.4,14.4-10.9L478.3,271H497c8.3,0,15-6.7,15-15v-60C512,187.7,505.3,181,497,181
		L497,181z M395.7,451H116.3L64.9,271h382.2L395.7,451z M482,241c-51.4,0-403.3,0-452,0v-30h452V241z"/>
	<path class="st0" d="M256,421c8.3,0,15-6.7,15-15v-90c0-8.3-6.7-15-15-15s-15,6.7-15,15v90C241,414.3,247.7,421,256,421z"/>
</g>
<rect x="39" y="217" class="st0" width="432" height="17"/>
</svg>
