<?xml version="1.0" encoding="utf-8"?>
<!-- Generator: Adobe Illustrator 24.3.0, SVG Export Plug-In . SVG Version: 6.00 Build 0)  -->
<svg version="1.1" id="Capa_1" xmlns="http://www.w3.org/2000/svg" xmlns:xlink="http://www.w3.org/1999/xlink" x="0px" y="0px"
	 viewBox="0 0 460.8 460.8" style="enable-background:new 0 0 460.8 460.8;" xml:space="preserve">
<style type="text/css">
	.st0{fill:#464646;}
	.st1{fill:#F5919D;}
</style>
<path class="st0" d="M5,230.5C5,105.7,105.7,5,230.5,5c124.7,0,225.4,100.8,225.3,225.6c0,124.7-100.9,225.2-225.8,225.2
	C105.7,455.8,5,354.9,5,230.5z M437.5,230.5c-0.8-115-91.8-206.9-206.7-207.1C115.5,23.3,23.9,114.9,23.5,229.6
	C23,344.7,114.6,437.1,230,437.3C345.4,437.6,436.5,345.7,437.5,230.5z"/>
<path class="st0" d="M225.8,411.9c-33.9-0.5-71.4-8.4-105.2-29c-25.2-15.3-24.2-19-18.9-43c11.1-50.8,44.6-81.2,93.4-94.2
	c43.1-11.4,83.8-3.6,119.5,23.7c28.7,21.9,44.6,51.1,46.8,87.4c0.4,6.8-1.9,12.2-6.7,16.9c-12.1,11.9-27.2,18.6-42.9,24.3
	C285.8,407.4,258.8,411.7,225.8,411.9z"/>
<path class="st1" d="M230.6,70.3c44.9,0,80.6,35.8,80.6,80.7c0,44.1-36.2,81-79.4,80.9c-46.1,0-82.2-35.8-82.2-81.3
	C149.7,105.9,185.6,70.3,230.6,70.3z"/>
</svg>
